<?xml version="1.0" encoding="UTF-8"?>
<svg width="1440px" height="1024px" viewBox="0 0 1440 1024" version="1.1" xmlns="http://www.w3.org/2000/svg" xmlns:xlink="http://www.w3.org/1999/xlink">
    <!-- Generator: Sketch 59.1 (86144) - https://sketch.com -->
    <title>Desktop HD</title>
    <desc>Created with Sketch.</desc>
    <g id="Desktop-HD" stroke="none" stroke-width="1" fill="none" fill-rule="evenodd">
        <rect fill="#FFFFFF" x="0" y="0" width="1440" height="1024"></rect>
        <rect id="Rectangle" stroke="#2D354E" stroke-width="2" opacity="0.8" x="1" y="1" width="34" height="34"></rect>
        <rect id="Rectangle" stroke="#2D354E" stroke-width="2" opacity="0.8" x="19" y="19" width="34" height="34"></rect>
        <rect id="Rectangle" stroke="#2D354E" stroke-width="2" opacity="0.8" x="37" y="37" width="34" height="34"></rect>
        <rect id="Rectangle" stroke="#2D354E" stroke-width="2" opacity="0.8" x="55" y="55" width="34" height="34"></rect>
        <rect id="Rectangle" stroke="#2D354E" stroke-width="2" opacity="0.8" x="73" y="73" width="34" height="34"></rect>
        <rect id="Rectangle" stroke="#2D354E" stroke-width="2" opacity="0.8" x="91" y="91" width="34" height="34"></rect>
        <rect id="Rectangle" stroke="#2D354E" stroke-width="2" opacity="0.8" x="109" y="109" width="34" height="34"></rect>
        <rect id="Rectangle" stroke="#2D354E" stroke-width="2" opacity="0.8" x="127" y="127" width="34" height="34"></rect>
        <rect id="Rectangle" stroke="#2D354E" stroke-width="2" opacity="0.8" x="1" y="91" width="34" height="34"></rect>
        <rect id="Rectangle" stroke="#2D354E" stroke-width="2" opacity="0.8" x="19" y="109" width="34" height="34"></rect>
        <rect id="Rectangle" stroke="#2D354E" stroke-width="2" opacity="0.8" x="37" y="127" width="34" height="34"></rect>
        <rect id="Rectangle" stroke="#2D354E" stroke-width="2" opacity="0.8" x="55" y="145" width="34" height="34"></rect>
        <rect id="Rectangle" stroke="#2D354E" stroke-width="2" opacity="0.8" x="73" y="163" width="34" height="34"></rect>
        <rect id="Rectangle" stroke="#2D354E" stroke-width="2" opacity="0.8" x="91" y="181" width="34" height="34"></rect>
        <rect id="Rectangle" stroke="#2D354E" stroke-width="2" opacity="0.8" x="109" y="199" width="34" height="34"></rect>
        <rect id="Rectangle" stroke="#2D354E" stroke-width="2" opacity="0.8" x="127" y="217" width="34" height="34"></rect>
        <rect id="Rectangle" stroke="#2D354E" stroke-width="2" opacity="0.8" x="82" y="-8" width="34" height="34"></rect>
        <rect id="Rectangle" stroke="#2D354E" stroke-width="2" opacity="0.8" x="100" y="10" width="34" height="34"></rect>
        <rect id="Rectangle" stroke="#2D354E" stroke-width="2" opacity="0.8" x="118" y="28" width="34" height="34"></rect>
        <rect id="Rectangle" stroke="#2D354E" stroke-width="2" opacity="0.8" x="136" y="46" width="34" height="34"></rect>
        <rect id="Rectangle" stroke="#2D354E" stroke-width="2" opacity="0.8" x="154" y="64" width="34" height="34"></rect>
        <rect id="Rectangle" stroke="#2D354E" stroke-width="2" opacity="0.8" x="172" y="82" width="34" height="34"></rect>
        <rect id="Rectangle" stroke="#2D354E" stroke-width="2" opacity="0.8" x="190" y="100" width="34" height="34"></rect>
        <rect id="Rectangle" stroke="#2D354E" stroke-width="2" opacity="0.8" x="208" y="118" width="34" height="34"></rect>
        <rect id="Rectangle" stroke="#2D354E" stroke-width="2" opacity="0.8" x="1" y="181" width="34" height="34"></rect>
        <rect id="Rectangle" stroke="#2D354E" stroke-width="2" opacity="0.8" x="19" y="199" width="34" height="34"></rect>
        <rect id="Rectangle" stroke="#2D354E" stroke-width="2" opacity="0.8" x="37" y="217" width="34" height="34"></rect>
        <rect id="Rectangle" stroke="#2D354E" stroke-width="2" opacity="0.8" x="55" y="235" width="34" height="34"></rect>
        <rect id="Rectangle" stroke="#2D354E" stroke-width="2" opacity="0.8" x="73" y="253" width="34" height="34"></rect>
        <rect id="Rectangle" stroke="#2D354E" stroke-width="2" opacity="0.8" x="91" y="271" width="34" height="34"></rect>
        <rect id="Rectangle" stroke="#2D354E" stroke-width="2" opacity="0.8" x="109" y="289" width="34" height="34"></rect>
        <rect id="Rectangle" stroke="#2D354E" stroke-width="2" opacity="0.8" x="127" y="307" width="34" height="34"></rect>
        <rect id="Rectangle" stroke="#2D354E" stroke-width="2" opacity="0.8" x="181" y="1" width="34" height="34"></rect>
        <rect id="Rectangle" stroke="#2D354E" stroke-width="2" opacity="0.8" x="199" y="19" width="34" height="34"></rect>
        <rect id="Rectangle" stroke="#2D354E" stroke-width="2" opacity="0.8" x="217" y="37" width="34" height="34"></rect>
        <rect id="Rectangle" stroke="#2D354E" stroke-width="2" opacity="0.8" x="235" y="55" width="34" height="34"></rect>
        <rect id="Rectangle" stroke="#2D354E" stroke-width="2" opacity="0.8" x="253" y="73" width="34" height="34"></rect>
        <rect id="Rectangle" stroke="#2D354E" stroke-width="2" opacity="0.8" x="271" y="91" width="34" height="34"></rect>
        <rect id="Rectangle" stroke="#2D354E" stroke-width="2" opacity="0.8" x="289" y="109" width="34" height="34"></rect>
        <rect id="Rectangle" stroke="#2D354E" stroke-width="2" opacity="0.8" x="307" y="127" width="34" height="34"></rect>
        <rect id="Rectangle" stroke="#2D354E" stroke-width="2" opacity="0.8" x="145" y="145" width="34" height="34"></rect>
        <rect id="Rectangle" stroke="#2D354E" stroke-width="2" opacity="0.8" x="163" y="163" width="34" height="34"></rect>
        <rect id="Rectangle" stroke="#2D354E" stroke-width="2" opacity="0.8" x="181" y="181" width="34" height="34"></rect>
        <rect id="Rectangle" stroke="#2D354E" stroke-width="2" opacity="0.8" x="199" y="199" width="34" height="34"></rect>
        <rect id="Rectangle" stroke="#2D354E" stroke-width="2" opacity="0.8" x="217" y="217" width="34" height="34"></rect>
        <rect id="Rectangle" stroke="#2D354E" stroke-width="2" opacity="0.8" x="235" y="235" width="34" height="34"></rect>
        <rect id="Rectangle" stroke="#2D354E" stroke-width="2" opacity="0.8" x="253" y="253" width="34" height="34"></rect>
        <rect id="Rectangle" stroke="#2D354E" stroke-width="2" opacity="0.8" x="271" y="271" width="34" height="34"></rect>
        <rect id="Rectangle" stroke="#2D354E" stroke-width="2" opacity="0.8" x="280" y="1" width="34" height="34"></rect>
        <rect id="Rectangle" stroke="#2D354E" stroke-width="2" opacity="0.8" x="298" y="19" width="34" height="34"></rect>
        <rect id="Rectangle" stroke="#2D354E" stroke-width="2" opacity="0.8" x="316" y="37" width="34" height="34"></rect>
        <rect id="Rectangle" stroke="#2D354E" stroke-width="2" opacity="0.8" x="334" y="55" width="34" height="34"></rect>
        <rect id="Rectangle" stroke="#2D354E" stroke-width="2" opacity="0.8" x="352" y="73" width="34" height="34"></rect>
        <rect id="Rectangle" stroke="#2D354E" stroke-width="2" opacity="0.8" x="370" y="91" width="34" height="34"></rect>
        <rect id="Rectangle" stroke="#2D354E" stroke-width="2" opacity="0.8" x="388" y="109" width="34" height="34"></rect>
        <rect id="Rectangle" stroke="#2D354E" stroke-width="2" opacity="0.8" x="406" y="127" width="34" height="34"></rect>
        <rect id="Rectangle" stroke="#2D354E" stroke-width="2" opacity="0.8" x="1" y="271" width="34" height="34"></rect>
        <rect id="Rectangle" stroke="#2D354E" stroke-width="2" opacity="0.8" x="19" y="289" width="34" height="34"></rect>
        <rect id="Rectangle" stroke="#2D354E" stroke-width="2" opacity="0.8" x="37" y="307" width="34" height="34"></rect>
        <rect id="Rectangle" stroke="#2D354E" stroke-width="2" opacity="0.8" x="55" y="325" width="34" height="34"></rect>
        <rect id="Rectangle" stroke="#2D354E" stroke-width="2" opacity="0.8" x="73" y="343" width="34" height="34"></rect>
        <rect id="Rectangle" stroke="#2D354E" stroke-width="2" opacity="0.8" x="91" y="361" width="34" height="34"></rect>
        <rect id="Rectangle" stroke="#2D354E" stroke-width="2" opacity="0.8" x="109" y="379" width="34" height="34"></rect>
        <rect id="Rectangle" stroke="#2D354E" stroke-width="2" opacity="0.8" x="127" y="397" width="34" height="34"></rect>
        <rect id="Rectangle" stroke="#2D354E" stroke-width="2" opacity="0.8" x="325" y="145" width="34" height="34"></rect>
        <rect id="Rectangle" stroke="#2D354E" stroke-width="2" opacity="0.8" x="343" y="163" width="34" height="34"></rect>
        <rect id="Rectangle" stroke="#2D354E" stroke-width="2" opacity="0.8" x="361" y="181" width="34" height="34"></rect>
        <rect id="Rectangle" stroke="#2D354E" stroke-width="2" opacity="0.8" x="379" y="199" width="34" height="34"></rect>
        <rect id="Rectangle" stroke="#2D354E" stroke-width="2" opacity="0.8" x="397" y="217" width="34" height="34"></rect>
        <rect id="Rectangle" stroke="#2D354E" stroke-width="2" opacity="0.8" x="415" y="235" width="34" height="34"></rect>
        <rect id="Rectangle" stroke="#2D354E" stroke-width="2" opacity="0.8" x="433" y="253" width="34" height="34"></rect>
        <rect id="Rectangle" stroke="#2D354E" stroke-width="2" opacity="0.8" x="451" y="271" width="34" height="34"></rect>
        <rect id="Rectangle" stroke="#2D354E" stroke-width="2" opacity="0.8" x="145" y="325" width="34" height="34"></rect>
        <rect id="Rectangle" stroke="#2D354E" stroke-width="2" opacity="0.8" x="163" y="343" width="34" height="34"></rect>
        <rect id="Rectangle" stroke="#2D354E" stroke-width="2" opacity="0.8" x="181" y="361" width="34" height="34"></rect>
        <rect id="Rectangle" stroke="#2D354E" stroke-width="2" opacity="0.8" x="199" y="379" width="34" height="34"></rect>
        <rect id="Rectangle" stroke="#2D354E" stroke-width="2" opacity="0.8" x="217" y="397" width="34" height="34"></rect>
        <rect id="Rectangle" stroke="#2D354E" stroke-width="2" opacity="0.8" x="235" y="415" width="34" height="34"></rect>
        <rect id="Rectangle" stroke="#2D354E" stroke-width="2" opacity="0.8" x="253" y="433" width="34" height="34"></rect>
        <rect id="Rectangle" stroke="#2D354E" stroke-width="2" opacity="0.8" x="271" y="451" width="34" height="34"></rect>
        <rect id="Rectangle" stroke="#2D354E" stroke-width="2" opacity="0.8" x="1" y="379" width="34" height="34"></rect>
        <rect id="Rectangle" stroke="#2D354E" stroke-width="2" opacity="0.8" x="19" y="397" width="34" height="34"></rect>
        <rect id="Rectangle" stroke="#2D354E" stroke-width="2" opacity="0.8" x="37" y="415" width="34" height="34"></rect>
        <rect id="Rectangle" stroke="#2D354E" stroke-width="2" opacity="0.8" x="55" y="433" width="34" height="34"></rect>
        <rect id="Rectangle" stroke="#2D354E" stroke-width="2" opacity="0.8" x="73" y="451" width="34" height="34"></rect>
        <rect id="Rectangle" stroke="#2D354E" stroke-width="2" opacity="0.8" x="577" y="1" width="34" height="34"></rect>
        <rect id="Rectangle" stroke="#2D354E" stroke-width="2" opacity="0.8" x="595" y="19" width="34" height="34"></rect>
        <rect id="Rectangle" stroke="#2D354E" stroke-width="2" opacity="0.8" x="613" y="37" width="34" height="34"></rect>
        <rect id="Rectangle" stroke="#2D354E" stroke-width="2" opacity="0.8" x="631" y="55" width="34" height="34"></rect>
        <rect id="Rectangle" stroke="#2D354E" stroke-width="2" opacity="0.8" x="649" y="73" width="34" height="34"></rect>
        <rect id="Rectangle" stroke="#2D354E" stroke-width="2" opacity="0.8" x="91" y="469" width="34" height="34"></rect>
        <rect id="Rectangle" stroke="#2D354E" stroke-width="2" opacity="0.8" x="109" y="487" width="34" height="34"></rect>
        <rect id="Rectangle" stroke="#2D354E" stroke-width="2" opacity="0.8" x="127" y="505" width="34" height="34"></rect>
        <rect id="Rectangle" stroke="#2D354E" stroke-width="2" opacity="0.8" x="379" y="1" width="34" height="34"></rect>
        <rect id="Rectangle" stroke="#2D354E" stroke-width="2" opacity="0.8" x="397" y="19" width="34" height="34"></rect>
        <rect id="Rectangle" stroke="#2D354E" stroke-width="2" opacity="0.8" x="415" y="37" width="34" height="34"></rect>
        <rect id="Rectangle" stroke="#2D354E" stroke-width="2" opacity="0.8" x="433" y="55" width="34" height="34"></rect>
        <rect id="Rectangle" stroke="#2D354E" stroke-width="2" opacity="0.8" x="451" y="73" width="34" height="34"></rect>
        <rect id="Rectangle" stroke="#2D354E" stroke-width="2" opacity="0.8" x="469" y="91" width="34" height="34"></rect>
        <rect id="Rectangle" stroke="#2D354E" stroke-width="2" opacity="0.8" x="487" y="109" width="34" height="34"></rect>
        <rect id="Rectangle" stroke="#2D354E" stroke-width="2" opacity="0.8" x="505" y="127" width="34" height="34"></rect>
        <rect id="Rectangle" stroke="#2D354E" stroke-width="2" opacity="0.8" x="478" y="1" width="34" height="34"></rect>
        <rect id="Rectangle" stroke="#2D354E" stroke-width="2" opacity="0.8" x="496" y="19" width="34" height="34"></rect>
        <rect id="Rectangle" stroke="#2D354E" stroke-width="2" opacity="0.8" x="514" y="37" width="34" height="34"></rect>
        <rect id="Rectangle" stroke="#2D354E" stroke-width="2" opacity="0.8" x="532" y="55" width="34" height="34"></rect>
        <rect id="Rectangle" stroke="#2D354E" stroke-width="2" opacity="0.8" x="550" y="73" width="34" height="34"></rect>
        <rect id="Rectangle" stroke="#2D354E" stroke-width="2" opacity="0.8" x="568" y="91" width="34" height="34"></rect>
        <rect id="Rectangle" stroke="#2D354E" stroke-width="2" opacity="0.8" x="586" y="109" width="34" height="34"></rect>
        <rect id="Rectangle" stroke="#2D354E" stroke-width="2" opacity="0.8" x="604" y="127" width="34" height="34"></rect>
        <g id="Group" opacity="0.8" transform="translate(1120.500000, 760.500000) rotate(180.000000) translate(-1120.500000, -760.500000) translate(801.000000, 486.000000)" stroke="#2D354E" stroke-width="2">
            <rect id="Rectangle" transform="translate(18.000000, 27.000000) rotate(90.000000) translate(-18.000000, -27.000000) " x="1" y="10" width="34" height="34"></rect>
            <rect id="Rectangle" transform="translate(36.000000, 45.000000) rotate(90.000000) translate(-36.000000, -45.000000) " x="19" y="28" width="34" height="34"></rect>
            <rect id="Rectangle" transform="translate(54.000000, 63.000000) rotate(90.000000) translate(-54.000000, -63.000000) " x="37" y="46" width="34" height="34"></rect>
            <rect id="Rectangle" transform="translate(72.000000, 81.000000) rotate(90.000000) translate(-72.000000, -81.000000) " x="55" y="64" width="34" height="34"></rect>
            <rect id="Rectangle" transform="translate(90.000000, 99.000000) rotate(90.000000) translate(-90.000000, -99.000000) " x="73" y="82" width="34" height="34"></rect>
            <rect id="Rectangle" transform="translate(108.000000, 117.000000) rotate(90.000000) translate(-108.000000, -117.000000) " x="91" y="100" width="34" height="34"></rect>
            <rect id="Rectangle" transform="translate(126.000000, 135.000000) rotate(90.000000) translate(-126.000000, -135.000000) " x="109" y="118" width="34" height="34"></rect>
            <rect id="Rectangle" transform="translate(144.000000, 153.000000) rotate(90.000000) translate(-144.000000, -153.000000) " x="127" y="136" width="34" height="34"></rect>
            <rect id="Rectangle" transform="translate(18.000000, 117.000000) rotate(90.000000) translate(-18.000000, -117.000000) " x="1" y="100" width="34" height="34"></rect>
            <rect id="Rectangle" transform="translate(36.000000, 135.000000) rotate(90.000000) translate(-36.000000, -135.000000) " x="19" y="118" width="34" height="34"></rect>
            <rect id="Rectangle" transform="translate(54.000000, 153.000000) rotate(90.000000) translate(-54.000000, -153.000000) " x="37" y="136" width="34" height="34"></rect>
            <rect id="Rectangle" transform="translate(72.000000, 171.000000) rotate(90.000000) translate(-72.000000, -171.000000) " x="55" y="154" width="34" height="34"></rect>
            <rect id="Rectangle" transform="translate(90.000000, 189.000000) rotate(90.000000) translate(-90.000000, -189.000000) " x="73" y="172" width="34" height="34"></rect>
            <rect id="Rectangle" transform="translate(108.000000, 207.000000) rotate(90.000000) translate(-108.000000, -207.000000) " x="91" y="190" width="34" height="34"></rect>
            <rect id="Rectangle" transform="translate(126.000000, 225.000000) rotate(90.000000) translate(-126.000000, -225.000000) " x="109" y="208" width="34" height="34"></rect>
            <rect id="Rectangle" transform="translate(144.000000, 243.000000) rotate(90.000000) translate(-144.000000, -243.000000) " x="127" y="226" width="34" height="34"></rect>
            <rect id="Rectangle" transform="translate(99.000000, 18.000000) rotate(90.000000) translate(-99.000000, -18.000000) " x="82" y="1" width="34" height="34"></rect>
            <rect id="Rectangle" transform="translate(117.000000, 36.000000) rotate(90.000000) translate(-117.000000, -36.000000) " x="100" y="19" width="34" height="34"></rect>
            <rect id="Rectangle" transform="translate(135.000000, 54.000000) rotate(90.000000) translate(-135.000000, -54.000000) " x="118" y="37" width="34" height="34"></rect>
            <rect id="Rectangle" transform="translate(153.000000, 72.000000) rotate(90.000000) translate(-153.000000, -72.000000) " x="136" y="55" width="34" height="34"></rect>
            <rect id="Rectangle" transform="translate(171.000000, 90.000000) rotate(90.000000) translate(-171.000000, -90.000000) " x="154" y="73" width="34" height="34"></rect>
            <rect id="Rectangle" transform="translate(189.000000, 108.000000) rotate(90.000000) translate(-189.000000, -108.000000) " x="172" y="91" width="34" height="34"></rect>
            <rect id="Rectangle" transform="translate(207.000000, 126.000000) rotate(90.000000) translate(-207.000000, -126.000000) " x="190" y="109" width="34" height="34"></rect>
            <rect id="Rectangle" transform="translate(225.000000, 144.000000) rotate(90.000000) translate(-225.000000, -144.000000) " x="208" y="127" width="34" height="34"></rect>
            <rect id="Rectangle" transform="translate(18.000000, 207.000000) rotate(90.000000) translate(-18.000000, -207.000000) " x="1" y="190" width="34" height="34"></rect>
            <rect id="Rectangle" transform="translate(36.000000, 225.000000) rotate(90.000000) translate(-36.000000, -225.000000) " x="19" y="208" width="34" height="34"></rect>
            <rect id="Rectangle" transform="translate(54.000000, 243.000000) rotate(90.000000) translate(-54.000000, -243.000000) " x="37" y="226" width="34" height="34"></rect>
            <rect id="Rectangle" transform="translate(72.000000, 261.000000) rotate(90.000000) translate(-72.000000, -261.000000) " x="55" y="244" width="34" height="34"></rect>
            <rect id="Rectangle" transform="translate(90.000000, 279.000000) rotate(90.000000) translate(-90.000000, -279.000000) " x="73" y="262" width="34" height="34"></rect>
            <rect id="Rectangle" transform="translate(108.000000, 297.000000) rotate(90.000000) translate(-108.000000, -297.000000) " x="91" y="280" width="34" height="34"></rect>
            <rect id="Rectangle" transform="translate(126.000000, 315.000000) rotate(90.000000) translate(-126.000000, -315.000000) " x="109" y="298" width="34" height="34"></rect>
            <rect id="Rectangle" transform="translate(144.000000, 333.000000) rotate(90.000000) translate(-144.000000, -333.000000) " x="127" y="316" width="34" height="34"></rect>
            <rect id="Rectangle" transform="translate(198.000000, 27.000000) rotate(90.000000) translate(-198.000000, -27.000000) " x="181" y="10" width="34" height="34"></rect>
            <rect id="Rectangle" transform="translate(216.000000, 45.000000) rotate(90.000000) translate(-216.000000, -45.000000) " x="199" y="28" width="34" height="34"></rect>
            <rect id="Rectangle" transform="translate(234.000000, 63.000000) rotate(90.000000) translate(-234.000000, -63.000000) " x="217" y="46" width="34" height="34"></rect>
            <rect id="Rectangle" transform="translate(252.000000, 81.000000) rotate(90.000000) translate(-252.000000, -81.000000) " x="235" y="64" width="34" height="34"></rect>
            <rect id="Rectangle" transform="translate(270.000000, 99.000000) rotate(90.000000) translate(-270.000000, -99.000000) " x="253" y="82" width="34" height="34"></rect>
            <rect id="Rectangle" transform="translate(288.000000, 117.000000) rotate(90.000000) translate(-288.000000, -117.000000) " x="271" y="100" width="34" height="34"></rect>
            <rect id="Rectangle" transform="translate(306.000000, 135.000000) rotate(90.000000) translate(-306.000000, -135.000000) " x="289" y="118" width="34" height="34"></rect>
            <rect id="Rectangle" transform="translate(324.000000, 153.000000) rotate(90.000000) translate(-324.000000, -153.000000) " x="307" y="136" width="34" height="34"></rect>
            <rect id="Rectangle" transform="translate(162.000000, 171.000000) rotate(90.000000) translate(-162.000000, -171.000000) " x="145" y="154" width="34" height="34"></rect>
            <rect id="Rectangle" transform="translate(180.000000, 189.000000) rotate(90.000000) translate(-180.000000, -189.000000) " x="163" y="172" width="34" height="34"></rect>
            <rect id="Rectangle" transform="translate(198.000000, 207.000000) rotate(90.000000) translate(-198.000000, -207.000000) " x="181" y="190" width="34" height="34"></rect>
            <rect id="Rectangle" transform="translate(216.000000, 225.000000) rotate(90.000000) translate(-216.000000, -225.000000) " x="199" y="208" width="34" height="34"></rect>
            <rect id="Rectangle" transform="translate(234.000000, 243.000000) rotate(90.000000) translate(-234.000000, -243.000000) " x="217" y="226" width="34" height="34"></rect>
            <rect id="Rectangle" transform="translate(252.000000, 261.000000) rotate(90.000000) translate(-252.000000, -261.000000) " x="235" y="244" width="34" height="34"></rect>
            <rect id="Rectangle" transform="translate(270.000000, 279.000000) rotate(90.000000) translate(-270.000000, -279.000000) " x="253" y="262" width="34" height="34"></rect>
            <rect id="Rectangle" transform="translate(288.000000, 297.000000) rotate(90.000000) translate(-288.000000, -297.000000) " x="271" y="280" width="34" height="34"></rect>
            <rect id="Rectangle" transform="translate(297.000000, 27.000000) rotate(90.000000) translate(-297.000000, -27.000000) " x="280" y="10" width="34" height="34"></rect>
            <rect id="Rectangle" transform="translate(315.000000, 45.000000) rotate(90.000000) translate(-315.000000, -45.000000) " x="298" y="28" width="34" height="34"></rect>
            <rect id="Rectangle" transform="translate(333.000000, 63.000000) rotate(90.000000) translate(-333.000000, -63.000000) " x="316" y="46" width="34" height="34"></rect>
            <rect id="Rectangle" transform="translate(351.000000, 81.000000) rotate(90.000000) translate(-351.000000, -81.000000) " x="334" y="64" width="34" height="34"></rect>
            <rect id="Rectangle" transform="translate(369.000000, 99.000000) rotate(90.000000) translate(-369.000000, -99.000000) " x="352" y="82" width="34" height="34"></rect>
            <rect id="Rectangle" transform="translate(387.000000, 117.000000) rotate(90.000000) translate(-387.000000, -117.000000) " x="370" y="100" width="34" height="34"></rect>
            <rect id="Rectangle" transform="translate(405.000000, 135.000000) rotate(90.000000) translate(-405.000000, -135.000000) " x="388" y="118" width="34" height="34"></rect>
            <rect id="Rectangle" transform="translate(423.000000, 153.000000) rotate(90.000000) translate(-423.000000, -153.000000) " x="406" y="136" width="34" height="34"></rect>
            <rect id="Rectangle" transform="translate(18.000000, 297.000000) rotate(90.000000) translate(-18.000000, -297.000000) " x="1" y="280" width="34" height="34"></rect>
            <rect id="Rectangle" transform="translate(36.000000, 315.000000) rotate(90.000000) translate(-36.000000, -315.000000) " x="19" y="298" width="34" height="34"></rect>
            <rect id="Rectangle" transform="translate(54.000000, 333.000000) rotate(90.000000) translate(-54.000000, -333.000000) " x="37" y="316" width="34" height="34"></rect>
            <rect id="Rectangle" transform="translate(72.000000, 351.000000) rotate(90.000000) translate(-72.000000, -351.000000) " x="55" y="334" width="34" height="34"></rect>
            <rect id="Rectangle" transform="translate(90.000000, 369.000000) rotate(90.000000) translate(-90.000000, -369.000000) " x="73" y="352" width="34" height="34"></rect>
            <rect id="Rectangle" transform="translate(108.000000, 387.000000) rotate(90.000000) translate(-108.000000, -387.000000) " x="91" y="370" width="34" height="34"></rect>
            <rect id="Rectangle" transform="translate(126.000000, 405.000000) rotate(90.000000) translate(-126.000000, -405.000000) " x="109" y="388" width="34" height="34"></rect>
            <rect id="Rectangle" transform="translate(144.000000, 423.000000) rotate(90.000000) translate(-144.000000, -423.000000) " x="127" y="406" width="34" height="34"></rect>
            <rect id="Rectangle" transform="translate(342.000000, 171.000000) rotate(90.000000) translate(-342.000000, -171.000000) " x="325" y="154" width="34" height="34"></rect>
            <rect id="Rectangle" transform="translate(360.000000, 189.000000) rotate(90.000000) translate(-360.000000, -189.000000) " x="343" y="172" width="34" height="34"></rect>
            <rect id="Rectangle" transform="translate(378.000000, 207.000000) rotate(90.000000) translate(-378.000000, -207.000000) " x="361" y="190" width="34" height="34"></rect>
            <rect id="Rectangle" transform="translate(396.000000, 225.000000) rotate(90.000000) translate(-396.000000, -225.000000) " x="379" y="208" width="34" height="34"></rect>
            <rect id="Rectangle" transform="translate(414.000000, 243.000000) rotate(90.000000) translate(-414.000000, -243.000000) " x="397" y="226" width="34" height="34"></rect>
            <rect id="Rectangle" transform="translate(432.000000, 261.000000) rotate(90.000000) translate(-432.000000, -261.000000) " x="415" y="244" width="34" height="34"></rect>
            <rect id="Rectangle" transform="translate(450.000000, 279.000000) rotate(90.000000) translate(-450.000000, -279.000000) " x="433" y="262" width="34" height="34"></rect>
            <rect id="Rectangle" transform="translate(468.000000, 297.000000) rotate(90.000000) translate(-468.000000, -297.000000) " x="451" y="280" width="34" height="34"></rect>
            <rect id="Rectangle" transform="translate(162.000000, 351.000000) rotate(90.000000) translate(-162.000000, -351.000000) " x="145" y="334" width="34" height="34"></rect>
            <rect id="Rectangle" transform="translate(180.000000, 369.000000) rotate(90.000000) translate(-180.000000, -369.000000) " x="163" y="352" width="34" height="34"></rect>
            <rect id="Rectangle" transform="translate(198.000000, 387.000000) rotate(90.000000) translate(-198.000000, -387.000000) " x="181" y="370" width="34" height="34"></rect>
            <rect id="Rectangle" transform="translate(216.000000, 405.000000) rotate(90.000000) translate(-216.000000, -405.000000) " x="199" y="388" width="34" height="34"></rect>
            <rect id="Rectangle" transform="translate(234.000000, 423.000000) rotate(90.000000) translate(-234.000000, -423.000000) " x="217" y="406" width="34" height="34"></rect>
            <rect id="Rectangle" transform="translate(252.000000, 441.000000) rotate(90.000000) translate(-252.000000, -441.000000) " x="235" y="424" width="34" height="34"></rect>
            <rect id="Rectangle" transform="translate(270.000000, 459.000000) rotate(90.000000) translate(-270.000000, -459.000000) " x="253" y="442" width="34" height="34"></rect>
            <rect id="Rectangle" transform="translate(288.000000, 477.000000) rotate(90.000000) translate(-288.000000, -477.000000) " x="271" y="460" width="34" height="34"></rect>
            <rect id="Rectangle" transform="translate(18.000000, 405.000000) rotate(90.000000) translate(-18.000000, -405.000000) " x="1" y="388" width="34" height="34"></rect>
            <rect id="Rectangle" transform="translate(36.000000, 423.000000) rotate(90.000000) translate(-36.000000, -423.000000) " x="19" y="406" width="34" height="34"></rect>
            <rect id="Rectangle" transform="translate(54.000000, 441.000000) rotate(90.000000) translate(-54.000000, -441.000000) " x="37" y="424" width="34" height="34"></rect>
            <rect id="Rectangle" transform="translate(72.000000, 459.000000) rotate(90.000000) translate(-72.000000, -459.000000) " x="55" y="442" width="34" height="34"></rect>
            <rect id="Rectangle" transform="translate(90.000000, 477.000000) rotate(90.000000) translate(-90.000000, -477.000000) " x="73" y="460" width="34" height="34"></rect>
            <rect id="Rectangle" transform="translate(108.000000, 495.000000) rotate(90.000000) translate(-108.000000, -495.000000) " x="91" y="478" width="34" height="34"></rect>
            <rect id="Rectangle" transform="translate(126.000000, 513.000000) rotate(90.000000) translate(-126.000000, -513.000000) " x="109" y="496" width="34" height="34"></rect>
            <rect id="Rectangle" transform="translate(144.000000, 531.000000) rotate(90.000000) translate(-144.000000, -531.000000) " x="127" y="514" width="34" height="34"></rect>
            <rect id="Rectangle" transform="translate(396.000000, 27.000000) rotate(90.000000) translate(-396.000000, -27.000000) " x="379" y="10" width="34" height="34"></rect>
            <rect id="Rectangle" transform="translate(414.000000, 45.000000) rotate(90.000000) translate(-414.000000, -45.000000) " x="397" y="28" width="34" height="34"></rect>
            <rect id="Rectangle" transform="translate(432.000000, 63.000000) rotate(90.000000) translate(-432.000000, -63.000000) " x="415" y="46" width="34" height="34"></rect>
            <rect id="Rectangle" transform="translate(450.000000, 81.000000) rotate(90.000000) translate(-450.000000, -81.000000) " x="433" y="64" width="34" height="34"></rect>
            <rect id="Rectangle" transform="translate(468.000000, 99.000000) rotate(90.000000) translate(-468.000000, -99.000000) " x="451" y="82" width="34" height="34"></rect>
            <rect id="Rectangle" transform="translate(486.000000, 117.000000) rotate(90.000000) translate(-486.000000, -117.000000) " x="469" y="100" width="34" height="34"></rect>
            <rect id="Rectangle" transform="translate(504.000000, 135.000000) rotate(90.000000) translate(-504.000000, -135.000000) " x="487" y="118" width="34" height="34"></rect>
            <rect id="Rectangle" transform="translate(522.000000, 153.000000) rotate(90.000000) translate(-522.000000, -153.000000) " x="505" y="136" width="34" height="34"></rect>
            <rect id="Rectangle" transform="translate(495.000000, 27.000000) rotate(90.000000) translate(-495.000000, -27.000000) " x="478" y="10" width="34" height="34"></rect>
            <rect id="Rectangle" transform="translate(513.000000, 45.000000) rotate(90.000000) translate(-513.000000, -45.000000) " x="496" y="28" width="34" height="34"></rect>
            <rect id="Rectangle" transform="translate(531.000000, 63.000000) rotate(90.000000) translate(-531.000000, -63.000000) " x="514" y="46" width="34" height="34"></rect>
            <rect id="Rectangle" transform="translate(549.000000, 81.000000) rotate(90.000000) translate(-549.000000, -81.000000) " x="532" y="64" width="34" height="34"></rect>
            <rect id="Rectangle" transform="translate(567.000000, 99.000000) rotate(90.000000) translate(-567.000000, -99.000000) " x="550" y="82" width="34" height="34"></rect>
            <rect id="Rectangle" transform="translate(585.000000, 117.000000) rotate(90.000000) translate(-585.000000, -117.000000) " x="568" y="100" width="34" height="34"></rect>
            <rect id="Rectangle" transform="translate(603.000000, 135.000000) rotate(90.000000) translate(-603.000000, -135.000000) " x="586" y="118" width="34" height="34"></rect>
            <rect id="Rectangle" transform="translate(621.000000, 153.000000) rotate(90.000000) translate(-621.000000, -153.000000) " x="604" y="136" width="34" height="34"></rect>
        </g>
        <rect id="Rectangle" stroke="#2D354E" stroke-width="2" opacity="0.8" x="1" y="487" width="34" height="34"></rect>
        <rect id="Rectangle" stroke="#2D354E" stroke-width="2" opacity="0.8" x="19" y="505" width="34" height="34"></rect>
        <rect id="Rectangle" stroke="#2D354E" stroke-width="2" opacity="0.8" x="37" y="523" width="34" height="34"></rect>
        <rect id="Rectangle" stroke="#2D354E" stroke-width="2" opacity="0.8" x="55" y="541" width="34" height="34"></rect>
        <rect id="Rectangle" stroke="#2D354E" stroke-width="2" opacity="0.8" x="73" y="559" width="34" height="34"></rect>
        <rect id="Rectangle" stroke="#2D354E" stroke-width="2" opacity="0.8" x="777" y="935" width="34" height="34"></rect>
        <rect id="Rectangle" stroke="#2D354E" stroke-width="2" opacity="0.8" x="795" y="953" width="34" height="34"></rect>
        <rect id="Rectangle" stroke="#2D354E" stroke-width="2" opacity="0.8" x="813" y="971" width="34" height="34"></rect>
        <rect id="Rectangle" stroke="#2D354E" stroke-width="2" opacity="0.8" x="831" y="989" width="34" height="34"></rect>
        <rect id="Rectangle" stroke="#2D354E" stroke-width="2" opacity="0.8" x="1351" y="451" width="34" height="34"></rect>
        <rect id="Rectangle" stroke="#2D354E" stroke-width="2" opacity="0.8" x="1369" y="469" width="34" height="34"></rect>
        <rect id="Rectangle" stroke="#2D354E" stroke-width="2" opacity="0.8" x="1387" y="487" width="34" height="34"></rect>
        <rect id="Rectangle" stroke="#2D354E" stroke-width="2" opacity="0.8" x="1405" y="505" width="34" height="34"></rect>
    </g>
</svg>